<mxfile host="app.diagrams.net" modified="2023-05-28T04:01:33.633Z" agent="Mozilla/5.0 (Windows NT 10.0; Win64; x64) AppleWebKit/537.36 (KHTML, like Gecko) Chrome/113.0.0.0 Safari/537.36" etag="PzLMd6c4NijTi9dY_XH8" version="21.3.2" type="onedrive">
  <diagram name="Page-1" id="WscLqW6jfwpBCmzCHr0K">
    <mxGraphModel grid="1" page="1" gridSize="10" guides="1" tooltips="1" connect="1" arrows="1" fold="1" pageScale="1" pageWidth="827" pageHeight="1169" math="0" shadow="0">
      <root>
        <mxCell id="0" />
        <mxCell id="1" parent="0" />
        <mxCell id="P4VYeAbGzcZU1P0pwk_B-1" value="Crimes Rows 2022" style="rounded=0;whiteSpace=wrap;html=1;fillColor=#0050ef;fontColor=#ffffff;strokeColor=#001DBC;" vertex="1" parent="1">
          <mxGeometry x="200" y="80" width="160" height="160" as="geometry" />
        </mxCell>
        <mxCell id="P4VYeAbGzcZU1P0pwk_B-2" value="Crimes Rows 2023&lt;br&gt;I Semester" style="rounded=0;whiteSpace=wrap;html=1;fillColor=#1ba1e2;fontColor=#ffffff;strokeColor=#006EAF;" vertex="1" parent="1">
          <mxGeometry x="200" y="240" width="160" height="80" as="geometry" />
        </mxCell>
        <mxCell id="P4VYeAbGzcZU1P0pwk_B-10" style="edgeStyle=orthogonalEdgeStyle;rounded=0;orthogonalLoop=1;jettySize=auto;html=1;entryX=1;entryY=0.5;entryDx=0;entryDy=0;" edge="1" parent="1" source="P4VYeAbGzcZU1P0pwk_B-5" target="P4VYeAbGzcZU1P0pwk_B-2">
          <mxGeometry relative="1" as="geometry" />
        </mxCell>
        <mxCell id="P4VYeAbGzcZU1P0pwk_B-11" value="update" style="edgeLabel;html=1;align=center;verticalAlign=middle;resizable=0;points=[];" connectable="0" vertex="1" parent="P4VYeAbGzcZU1P0pwk_B-10">
          <mxGeometry x="0.3545" relative="1" as="geometry">
            <mxPoint x="14" as="offset" />
          </mxGeometry>
        </mxCell>
        <mxCell id="P4VYeAbGzcZU1P0pwk_B-5" value="Crimes Rows 2023&lt;br&gt;I Semester" style="rounded=0;whiteSpace=wrap;html=1;fillColor=#a20025;fontColor=#ffffff;strokeColor=#6F0000;" vertex="1" parent="1">
          <mxGeometry x="440" y="240" width="160" height="80" as="geometry" />
        </mxCell>
        <mxCell id="P4VYeAbGzcZU1P0pwk_B-7" style="edgeStyle=orthogonalEdgeStyle;rounded=0;orthogonalLoop=1;jettySize=auto;html=1;entryX=0.5;entryY=1;entryDx=0;entryDy=0;" edge="1" parent="1" source="P4VYeAbGzcZU1P0pwk_B-6" target="P4VYeAbGzcZU1P0pwk_B-2">
          <mxGeometry relative="1" as="geometry" />
        </mxCell>
        <mxCell id="P4VYeAbGzcZU1P0pwk_B-8" value="insert" style="edgeLabel;html=1;align=center;verticalAlign=middle;resizable=0;points=[];" connectable="0" vertex="1" parent="P4VYeAbGzcZU1P0pwk_B-7">
          <mxGeometry x="0.05" y="1" relative="1" as="geometry">
            <mxPoint x="14" y="-1" as="offset" />
          </mxGeometry>
        </mxCell>
        <mxCell id="P4VYeAbGzcZU1P0pwk_B-6" value="Crimes Rows 2023&lt;br&gt;II Semester" style="rounded=0;whiteSpace=wrap;html=1;fillColor=#60a917;fontColor=#ffffff;strokeColor=#2D7600;" vertex="1" parent="1">
          <mxGeometry x="440" y="320" width="160" height="80" as="geometry" />
        </mxCell>
        <mxCell id="P4VYeAbGzcZU1P0pwk_B-12" value="Old Data" style="text;html=1;strokeColor=none;fillColor=none;align=center;verticalAlign=middle;whiteSpace=wrap;rounded=0;" vertex="1" parent="1">
          <mxGeometry x="250" y="50" width="60" height="30" as="geometry" />
        </mxCell>
        <mxCell id="P4VYeAbGzcZU1P0pwk_B-13" value="New Data" style="text;html=1;strokeColor=none;fillColor=none;align=center;verticalAlign=middle;whiteSpace=wrap;rounded=0;" vertex="1" parent="1">
          <mxGeometry x="490" y="200" width="60" height="30" as="geometry" />
        </mxCell>
      </root>
    </mxGraphModel>
  </diagram>
</mxfile>
